<svg width="64" height="36" viewBox="0 0 116 65" fill="none" xmlns="http://www.w3.org/2000/svg">
<path fill-rule="evenodd" clip-rule="evenodd" d="M57.0347 0.732002C58.1299 0.703769 59.2219 0.746966 60.3107 0.861592C68.5512 2.09183 76.7832 3.35887 85.0067 4.66289C85.294 7.19818 85.4754 9.74678 85.5527 12.3087C85.5947 14.6123 85.609 16.9161 85.5947 19.2201C95.5344 19.2201 105.475 19.2201 115.415 19.2201C115.415 26.9955 115.415 34.7709 115.415 42.5463C103.968 42.6124 92.5154 42.6555 81.0587 42.6758C77.4585 50.5432 71.9985 56.6484 64.6787 60.9912C62.7837 62.0953 60.8517 63.132 58.8827 64.1013C58.6307 64.159 58.3787 64.159 58.1267 64.1013C52.5965 61.5101 47.7384 57.9535 43.5527 53.4318C40.7726 50.195 38.4906 46.6097 36.7067 42.6758C24.5546 42.6471 12.4027 42.6182 0.250678 42.5895C0.166804 34.8922 0.138807 27.1888 0.166678 19.4793C10.7227 19.4793 21.2787 19.4793 31.8347 19.4793C31.7051 14.5148 31.8731 9.56164 32.3387 4.61969C40.5887 3.37062 48.8207 2.07472 57.0347 0.732002ZM57.8747 2.0279C58.3236 2.01356 58.7715 2.02799 59.2187 2.0711C67.4003 3.31999 75.5762 4.58712 83.7467 5.87239C84.0012 8.0628 84.1549 10.2658 84.2087 12.4815C84.2507 14.7275 84.265 16.9737 84.2507 19.2201C84.0264 19.2201 83.803 19.2201 83.5787 19.2201C83.5862 17.0881 83.5442 14.9571 83.4527 12.827C83.3838 10.8711 83.2301 8.92725 82.9907 6.9955C74.7926 5.72725 66.5886 4.50332 58.3787 3.3238C50.3951 4.51939 42.4151 5.74332 34.4387 6.9955C34.3967 7.0387 34.3547 7.08189 34.3127 7.12509C33.9071 11.2039 33.7532 15.2931 33.8507 19.3929C33.6234 19.3994 33.3993 19.4282 33.1787 19.4793C33.0509 15.0086 33.1769 10.545 33.5567 6.08837C33.5881 6.00924 33.6301 5.93719 33.6827 5.87239C41.754 4.57995 49.818 3.2984 57.8747 2.0279ZM57.7907 5.48362C59.5225 5.27326 60.8526 5.90678 61.7807 7.38427C61.9885 7.83775 62.0025 8.28405 61.8227 8.72336C61.8444 8.83231 61.9005 8.9187 61.9907 8.98254C66.1347 11.6895 70.2787 14.3965 74.4227 17.1035C74.7546 17.1823 75.0627 17.1247 75.3467 16.9307C77.6878 15.488 80.0398 14.0625 82.4027 12.6542C82.543 14.8403 82.5992 17.0289 82.5707 19.2201C78.6227 19.2201 74.6747 19.2201 70.7267 19.2201C70.6623 26.9655 70.6483 34.7121 70.6847 42.4599C70.7477 42.5139 70.8177 42.5571 70.8947 42.5895C73.1912 42.6039 75.4872 42.6471 77.7827 42.719C77.3764 43.639 76.8865 44.503 76.3127 45.3108C74.61 44.6743 72.888 44.0983 71.1467 43.583C66.9568 44.8707 62.7707 46.1666 58.5887 47.4707C54.6854 46.1901 50.7794 44.9086 46.8707 43.6262C46.5626 43.5686 46.2547 43.5686 45.9467 43.6262C44.4144 44.1419 42.8884 44.6746 41.3687 45.2244C41.1737 45.1392 41.0338 44.9952 40.9487 44.7925C40.5517 44.0911 40.2017 43.3711 39.8987 42.6327C42.1668 42.6471 44.4348 42.6327 46.7027 42.5895C46.7796 42.5571 46.8497 42.5139 46.9127 42.4599C46.9687 34.8573 46.9687 27.2547 46.9127 19.6521C42.9129 19.48 38.895 19.4224 34.8587 19.4793C34.8182 17.1966 34.8602 14.9215 34.9847 12.6542C37.6801 14.0908 40.3821 15.5163 43.0907 16.9307C43.2587 16.9883 43.4267 16.9883 43.5947 16.9307C47.4307 14.2669 51.2667 11.6031 55.1027 8.93935C54.9158 7.61028 55.3918 6.61675 56.5307 5.95878C56.9451 5.75464 57.3651 5.59628 57.7907 5.48362ZM58.2107 7.55706C58.8298 7.45615 59.2498 7.7009 59.4707 8.2914C59.1749 8.93062 58.699 9.13218 58.0427 8.89615C57.6217 8.70824 57.4957 8.40587 57.6647 7.98902C57.8297 7.81192 58.0118 7.6679 58.2107 7.55706ZM58.3787 10.408C58.4763 12.0347 58.4903 13.6762 58.4207 15.3324C57.5756 15.504 56.7215 15.648 55.8587 15.7644C55.7747 15.7356 55.6907 15.7068 55.6067 15.678C56.5541 13.9304 57.4781 12.1738 58.3787 10.408ZM60.8987 10.9264C63.5394 12.9069 66.1714 14.9083 68.7947 16.9307C67.9389 16.8913 67.0989 16.7474 66.2747 16.4987C64.4657 14.6527 62.6738 12.7952 60.8987 10.9264ZM56.6147 17.665C56.9454 17.6397 57.2674 17.6685 57.5807 17.7514C57.6494 18.6077 57.6354 19.4572 57.5387 20.3C54.8241 20.444 52.1081 20.5736 49.3907 20.6888C49.1453 20.6867 48.9073 20.658 48.6767 20.6024C48.6597 19.9933 48.6177 19.3886 48.5507 18.7882C48.5813 18.667 48.6514 18.5806 48.7607 18.529C51.3915 18.2531 54.0095 17.9651 56.6147 17.665ZM59.3867 17.665C62.4967 18.0316 65.6047 18.4204 68.7107 18.8314C68.8194 19.1545 68.8754 19.5 68.8787 19.8681C68.8646 20.1992 68.8507 20.5304 68.8367 20.8616C68.6483 20.9166 68.4523 20.9454 68.2487 20.948C65.3225 20.7626 62.3964 20.5754 59.4707 20.3864C59.4287 20.3432 59.3867 20.3 59.3447 20.2568C59.2769 19.3863 59.2909 18.5223 59.3867 17.665ZM55.9427 21.8983C56.5241 21.8714 57.0982 21.9001 57.6647 21.9847C57.7207 25.0949 57.7207 28.205 57.6647 31.3152C57.6026 31.4079 57.5186 31.4656 57.4127 31.4879C56.2004 31.3463 54.9964 31.1736 53.8007 30.9696C53.7446 28.0035 53.7446 25.0372 53.8007 22.0711C54.5229 22.0146 55.2369 21.9571 55.9427 21.8983ZM59.4707 21.9847C60.619 22.0117 61.7671 22.0549 62.9147 22.1143C63.1555 22.1168 63.3655 22.1888 63.5447 22.3303C63.6007 25.21 63.6007 28.0898 63.5447 30.9696C63.5027 31.0704 63.4327 31.1424 63.3347 31.1856C62.1126 31.2841 60.8946 31.4137 59.6807 31.5743C59.6073 31.554 59.5373 31.5252 59.4707 31.4879C59.3593 28.3145 59.3593 25.1467 59.4707 21.9847ZM48.9707 22.0711C50.1467 22.0711 51.3227 22.0711 52.4987 22.0711C52.5062 25.0124 52.5062 27.9498 52.4987 30.8832C51.2677 30.7505 50.0356 30.6209 48.8027 30.4944C48.7607 30.4512 48.7187 30.408 48.6767 30.3648C48.6207 27.6579 48.6207 24.9508 48.6767 22.2439C48.786 22.1933 48.8841 22.1358 48.9707 22.0711ZM64.7627 22.2439C65.9951 22.2679 67.2271 22.3111 68.4587 22.3735C68.5932 22.3971 68.7192 22.4403 68.8367 22.5031C68.8268 24.7787 68.8407 27.0537 68.8787 29.3281C68.8646 29.6737 68.8507 30.0193 68.8367 30.3648C68.81 30.4997 68.74 30.6005 68.6267 30.6672C67.4188 30.7631 66.2147 30.8927 65.0147 31.056C64.8862 31.0535 64.7882 30.9958 64.7207 30.8832C64.6513 27.9972 64.6653 25.1175 64.7627 22.2439ZM22.6787 23.9717C24.4867 23.8573 26.0827 24.3901 27.4667 25.57C27.8112 25.8661 28.0911 26.2117 28.3067 26.6067C28.2562 26.7454 28.1722 26.8606 28.0547 26.9523C27.3386 27.5304 26.6105 28.092 25.8707 28.637C24.6492 27.1852 23.1932 26.8541 21.5027 27.6434C20.4769 28.3858 20.0009 29.4082 20.0747 30.7104C20.1748 33.2185 21.4348 34.356 23.8547 34.1229C24.2091 34.0271 24.5451 33.8832 24.8627 33.691C25.2167 33.3694 25.5807 33.067 25.9547 32.7838C26.7849 33.2771 27.5829 33.8243 28.3487 34.4253C28.3924 34.5799 28.3644 34.7239 28.2647 34.8573C26.4738 36.9881 24.2198 37.78 21.5027 37.2331C18.7284 36.482 17.0904 34.6533 16.5887 31.7471C16.2535 28.6786 17.3595 26.3604 19.9067 24.7925C20.7993 24.369 21.7233 24.0954 22.6787 23.9717ZM34.5227 24.1445C35.503 24.1301 36.4831 24.1445 37.4627 24.1877C37.5396 24.22 37.6097 24.2632 37.6727 24.3173C39.435 28.5613 41.185 32.809 42.9227 37.0603C42.8457 37.0926 42.7757 37.1358 42.7127 37.1899C41.6767 37.0747 40.6406 37.0747 39.6047 37.1899C39.4927 37.1323 39.3806 37.0747 39.2687 37.0171C39.0447 36.4411 38.8207 35.8652 38.5967 35.2892C38.5307 35.1349 38.4328 35.0054 38.3027 34.9005C36.7067 34.8428 35.1107 34.8428 33.5147 34.9005C33.1742 35.5867 32.8662 36.2923 32.5907 37.0171C32.4959 37.0829 32.3979 37.1406 32.2967 37.1899C31.2239 37.133 30.1459 37.0754 29.0627 37.0171C30.7485 32.8667 32.4425 28.7198 34.1447 24.5765C34.2308 24.3876 34.3568 24.2435 34.5227 24.1445ZM6.80268 24.2309C7.83907 24.2165 8.87504 24.2309 9.91068 24.2741C9.96326 24.3389 10.0053 24.411 10.0367 24.4901C10.0647 27.629 10.0927 30.768 10.1207 33.9069C10.1627 33.9501 10.2047 33.9933 10.2467 34.0365C12.1787 34.0653 14.1107 34.0942 16.0427 34.1229C16.1257 35.1095 16.1536 36.103 16.1267 37.1035C13.2079 37.0758 10.282 37.1046 7.34868 37.1899C7.10735 37.1946 6.88332 37.137 6.67668 37.0171C6.62065 32.8126 6.62065 28.6082 6.67668 24.4037C6.73691 24.3567 6.77891 24.2991 6.80268 24.2309ZM85.0067 24.7493C87.6804 24.5168 89.4301 25.6975 90.2567 28.2914C90.5792 30.0052 90.523 31.7043 90.0887 33.3886C89.2756 35.7728 87.6376 36.9823 85.1747 37.0171C83.6921 37.0129 82.3758 36.5377 81.2267 35.5916C81.7164 34.8573 82.207 34.1229 82.6967 33.3886C83.7694 34.3293 84.9596 34.5453 86.2667 34.0365C86.8984 33.5036 87.2621 32.8124 87.3587 31.9631C86.9815 32.1571 86.5892 32.3586 86.1827 32.5679C84.8437 32.977 83.5837 32.8042 82.4027 32.0495C81.4678 31.2925 81.02 30.299 81.0587 29.0689C81.0713 27.4587 81.7433 26.2347 83.0747 25.3972C83.7038 25.0999 84.3481 24.8839 85.0067 24.7493ZM107.855 24.7493C109.159 24.6864 110.391 24.96 111.551 25.57C111.825 25.6961 112.048 25.8833 112.223 26.1316C111.773 26.8843 111.284 27.6043 110.753 28.2914C110.091 27.7908 109.349 27.5028 108.527 27.4275C107.218 27.6059 106.49 28.3834 106.343 29.7601C106.37 29.8177 106.399 29.8752 106.427 29.9329C108.037 28.7997 109.661 28.7853 111.299 29.8897C112.465 31.0152 112.843 32.3831 112.433 33.9933C111.956 35.4621 110.99 36.398 109.535 36.8011C105.366 37.4675 103.238 35.6244 103.151 31.272C103.106 29.6258 103.512 28.1139 104.369 26.7363C105.258 25.5663 106.42 24.904 107.855 24.7493ZM76.7747 24.9221C77.5867 24.9221 78.3987 24.9221 79.2107 24.9221C79.2107 28.8674 79.2107 32.8126 79.2107 36.7579C78.1747 36.7579 77.1386 36.7579 76.1027 36.7579C76.1306 33.82 76.1027 30.8826 76.0187 27.9458C75.4087 28.1317 74.7926 28.2613 74.1707 28.3346C73.9553 27.5205 73.7593 26.6998 73.5827 25.8724C74.6645 25.5876 75.7285 25.2708 76.7747 24.9221ZM97.2707 24.9221C98.335 24.9221 99.3984 24.9221 100.463 24.9221C100.448 27.2836 100.463 29.6451 100.505 32.0063C100.987 32.0905 101.477 32.1193 101.975 32.0927C101.989 32.8708 101.975 33.6483 101.933 34.4253C101.451 34.5095 100.961 34.5383 100.463 34.5117C100.463 35.2605 100.463 36.0092 100.463 36.7579C99.4547 36.7579 98.4467 36.7579 97.4387 36.7579C97.4387 36.0092 97.4387 35.2605 97.4387 34.5117C95.5898 34.5405 93.7418 34.5117 91.8947 34.4253C91.6939 33.7286 91.5259 33.0231 91.3907 32.3087C91.478 32.0734 91.604 31.8574 91.7687 31.6607C93.62 29.4255 95.4546 27.1793 97.2707 24.9221ZM48.7187 31.9199C50.002 32.0471 51.2761 32.2199 52.5407 32.4383C52.5827 35.6059 52.5967 38.7736 52.5827 41.9415C51.2912 41.6562 50.0172 41.3107 48.7607 40.9048C48.6877 40.725 48.6457 40.5379 48.6347 40.3432C48.7079 37.5335 48.7359 34.7257 48.7187 31.9199ZM68.3747 32.0927C68.5399 32.072 68.694 32.1008 68.8367 32.1791C68.8927 35.0877 68.8927 37.9962 68.8367 40.9048C68.7947 41.0056 68.7247 41.0776 68.6267 41.1208C67.3175 41.4646 66.0015 41.767 64.6787 42.0279C64.6646 38.9464 64.6787 35.8651 64.7207 32.7838C64.8027 32.5776 64.9566 32.4768 65.1827 32.4815C66.2636 32.3916 67.3276 32.262 68.3747 32.0927ZM53.8427 32.5247C55.0429 32.7042 56.2468 32.8625 57.4547 32.9998C57.5247 33.0718 57.5947 33.1438 57.6647 33.2158C57.7207 36.5275 57.7207 39.8393 57.6647 43.151C57.6087 43.2086 57.5527 43.2662 57.4967 43.3238C56.3185 42.9584 55.1285 42.6273 53.9267 42.3303C53.8847 42.2871 53.8427 42.2439 53.8007 42.2007C53.7313 38.9692 53.7452 35.7438 53.8427 32.5247ZM62.8307 32.6974C63.1004 32.6553 63.3384 32.7129 63.5447 32.8702C63.5299 36.0374 63.5019 39.2052 63.4607 42.3735C62.1152 42.7662 60.7573 43.1118 59.3867 43.4102C59.3727 40.0119 59.3867 36.6138 59.4287 33.2158C59.4917 33.1617 59.5617 33.1185 59.6387 33.0862C60.7195 32.9954 61.7835 32.8658 62.8307 32.6974ZM38.5547 42.5463C42.9633 51.3852 49.6134 57.7783 58.5047 61.7255C64.0528 59.3347 68.9248 55.9365 73.1207 51.5311C75.4402 48.9507 77.3442 46.0709 78.8327 42.8918C78.9932 42.6497 79.2031 42.592 79.4627 42.719C76.4025 49.337 71.8665 54.6213 65.8547 58.5722C63.5148 60.1286 61.0647 61.4965 58.5047 62.6758C50.8258 59.1317 44.7218 53.7177 40.1927 46.4339C39.492 45.2233 38.834 43.9851 38.2187 42.719C38.3404 42.661 38.4524 42.6034 38.5547 42.5463Z" fill="#336BB2"/>
<path fill-rule="evenodd" clip-rule="evenodd" d="M57.9587 6.86591C58.8653 6.72051 59.6353 6.97969 60.2687 7.64345C60.5704 8.22384 60.5004 8.75662 60.0587 9.24172C64.2724 12.0854 68.5003 14.9076 72.7427 17.7082C72.8718 17.8041 72.9277 17.9337 72.9107 18.097C71.9795 18.0457 71.0555 17.9305 70.1387 17.7514C69.9473 17.7757 69.8493 17.891 69.8447 18.097C69.8171 26.2182 69.7611 34.3392 69.6767 42.4599C69.5783 42.5802 69.4523 42.6523 69.2987 42.6758C65.7046 43.6872 62.1066 44.6808 58.5047 45.6564C55.0707 44.6808 51.6406 43.6872 48.2147 42.6758C48.061 42.6523 47.935 42.5802 47.8367 42.4599C47.7947 34.1662 47.7806 25.8725 47.7947 17.5787C46.9028 17.7222 46.0068 17.7942 45.1067 17.7946C45.1593 17.7298 45.2013 17.6578 45.2327 17.5787C49.0474 14.8466 52.8694 12.1253 56.6987 9.41451C56.7889 9.35066 56.8449 9.26427 56.8667 9.15533C56.4345 8.36008 56.5745 7.6977 57.2867 7.16829C57.5226 7.07386 57.7467 6.97304 57.9587 6.86591ZM58.2107 7.55706C58.0118 7.6679 57.8297 7.81192 57.6647 7.98902C57.4957 8.40587 57.6217 8.70824 58.0427 8.89615C58.699 9.13218 59.1749 8.93062 59.4707 8.2914C59.2498 7.7009 58.8298 7.45615 58.2107 7.55706ZM58.3787 10.408C57.4781 12.1738 56.5541 13.9304 55.6067 15.678C55.6907 15.7068 55.7747 15.7356 55.8587 15.7644C56.7215 15.648 57.5756 15.504 58.4207 15.3324C58.4903 13.6762 58.4763 12.0347 58.3787 10.408ZM60.8987 10.9264C62.6738 12.7952 64.4657 14.6527 66.2747 16.4987C67.0989 16.7474 67.9389 16.8913 68.7947 16.9307C66.1714 14.9083 63.5394 12.9069 60.8987 10.9264ZM56.6147 17.665C54.0095 17.9651 51.3915 18.2531 48.7607 18.529C48.6514 18.5806 48.5813 18.667 48.5507 18.7882C48.6177 19.3886 48.6597 19.9933 48.6767 20.6024C48.9073 20.658 49.1453 20.6867 49.3907 20.6888C52.1081 20.5736 54.8241 20.444 57.5387 20.3C57.6354 19.4572 57.6494 18.6077 57.5807 17.7514C57.2674 17.6685 56.9454 17.6397 56.6147 17.665ZM59.3867 17.665C59.2909 18.5223 59.2769 19.3863 59.3447 20.2568C59.3867 20.3 59.4287 20.3432 59.4707 20.3864C62.3964 20.5754 65.3225 20.7626 68.2487 20.948C68.4523 20.9454 68.6483 20.9166 68.8367 20.8616C68.8507 20.5304 68.8646 20.1992 68.8787 19.8681C68.8754 19.5 68.8194 19.1545 68.7107 18.8314C65.6047 18.4204 62.4967 18.0316 59.3867 17.665ZM55.9427 21.8983C55.2369 21.9571 54.5229 22.0146 53.8007 22.0711C53.7446 25.0372 53.7446 28.0035 53.8007 30.9696C54.9964 31.1736 56.2004 31.3463 57.4127 31.4879C57.5186 31.4656 57.6026 31.4079 57.6647 31.3152C57.7207 28.205 57.7207 25.0949 57.6647 21.9847C57.0982 21.9001 56.5241 21.8714 55.9427 21.8983ZM59.4707 21.9847C59.3593 25.1467 59.3593 28.3145 59.4707 31.4879C59.5373 31.5252 59.6073 31.554 59.6807 31.5743C60.8946 31.4137 62.1126 31.2841 63.3347 31.1856C63.4327 31.1424 63.5027 31.0704 63.5447 30.9696C63.6007 28.0898 63.6007 25.21 63.5447 22.3303C63.3655 22.1888 63.1555 22.1168 62.9147 22.1143C61.7671 22.0549 60.619 22.0117 59.4707 21.9847ZM48.9707 22.0711C48.8841 22.1358 48.786 22.1933 48.6767 22.2439C48.6207 24.9508 48.6207 27.6579 48.6767 30.3648C48.7187 30.408 48.7607 30.4512 48.8027 30.4944C50.0356 30.6209 51.2677 30.7505 52.4987 30.8832C52.5062 27.9498 52.5062 25.0124 52.4987 22.0711C51.3227 22.0711 50.1467 22.0711 48.9707 22.0711ZM64.7627 22.2439C64.6653 25.1175 64.6513 27.9972 64.7207 30.8832C64.7882 30.9958 64.8862 31.0535 65.0147 31.056C66.2147 30.8927 67.4188 30.7631 68.6267 30.6672C68.74 30.6005 68.81 30.4997 68.8367 30.3648C68.8507 30.0193 68.8646 29.6737 68.8787 29.3281C68.8407 27.0537 68.8268 24.7787 68.8367 22.5031C68.7192 22.4403 68.5932 22.3971 68.4587 22.3735C67.2271 22.3111 65.9951 22.2679 64.7627 22.2439ZM48.7187 31.9199C48.7359 34.7257 48.7079 37.5335 48.6347 40.3432C48.6457 40.5379 48.6877 40.725 48.7607 40.9048C50.0172 41.3107 51.2912 41.6562 52.5827 41.9415C52.5967 38.7736 52.5827 35.6059 52.5407 32.4383C51.2761 32.2199 50.002 32.0471 48.7187 31.9199ZM68.3747 32.0927C67.3276 32.262 66.2636 32.3916 65.1827 32.4815C64.9566 32.4768 64.8027 32.5776 64.7207 32.7838C64.6787 35.8651 64.6646 38.9464 64.6787 42.0279C66.0015 41.767 67.3175 41.4646 68.6267 41.1208C68.7247 41.0776 68.7947 41.0056 68.8367 40.9048C68.8927 37.9962 68.8927 35.0877 68.8367 32.1791C68.694 32.1008 68.5399 32.072 68.3747 32.0927ZM53.8427 32.5247C53.7452 35.7438 53.7313 38.9692 53.8007 42.2007C53.8427 42.2439 53.8847 42.2871 53.9267 42.3303C55.1285 42.6273 56.3185 42.9584 57.4967 43.3238C57.5527 43.2662 57.6087 43.2086 57.6647 43.151C57.7207 39.8393 57.7207 36.5275 57.6647 33.2158C57.5947 33.1438 57.5247 33.0718 57.4547 32.9998C56.2468 32.8625 55.0429 32.7042 53.8427 32.5247ZM62.8307 32.6974C61.7835 32.8658 60.7195 32.9954 59.6387 33.0862C59.5617 33.1185 59.4917 33.1617 59.4287 33.2158C59.3867 36.6138 59.3727 40.0119 59.3867 43.4102C60.7573 43.1118 62.1152 42.7662 63.4607 42.3735C63.5019 39.2052 63.5299 36.0374 63.5447 32.8702C63.3384 32.7129 63.1004 32.6553 62.8307 32.6974Z" fill="white"/>
<path fill-rule="evenodd" clip-rule="evenodd" d="M17.6387 9.37131C17.8089 9.35731 17.9769 9.37174 18.1427 9.41451C17.3726 10.3216 16.6027 11.2288 15.8327 12.1359C15.7118 12.3042 15.5578 12.4193 15.3707 12.4815C12.2225 12.0979 9.08647 11.6803 5.96268 11.2288C9.86918 10.6262 13.7612 10.007 17.6387 9.37131Z" fill="#336BB2"/>
<path fill-rule="evenodd" clip-rule="evenodd" d="M5.71068 11.6175C12.659 12.4532 19.6029 13.3316 26.5427 14.2525C19.673 15.4657 12.785 16.6031 5.87868 17.6651C5.85062 15.6483 5.79468 13.6325 5.71068 11.6175ZM6.13068 12.0495C11.9777 12.8192 17.8297 13.5824 23.6867 14.3389C17.8925 15.2937 12.0965 16.2296 6.29868 17.1467C6.27659 15.446 6.22064 13.747 6.13068 12.0495Z" fill="#336BB2"/>
<path fill-rule="evenodd" clip-rule="evenodd" d="M25.9547 14.9005C26.1507 14.9005 26.3467 14.9005 26.5427 14.9005C26.6121 16.3137 26.6961 17.7247 26.7947 19.1337C17.9186 19.1482 9.04262 19.1337 0.166678 19.0905C8.77458 17.6964 17.3705 16.2997 25.9547 14.9005Z" fill="#336BB2"/>
<path fill-rule="evenodd" clip-rule="evenodd" d="M85.1747 27.3411C86.2012 27.12 86.9152 27.4943 87.3167 28.4642C87.4292 30.047 86.7152 30.6949 85.1747 30.408C84.3599 30.0724 84.0104 29.4533 84.1247 28.5506C84.2885 27.9648 84.6388 27.5616 85.1747 27.3411Z" fill="#336BB2"/>
<path fill-rule="evenodd" clip-rule="evenodd" d="M35.8667 28.3778C35.9717 28.3844 36.0416 28.4421 36.0767 28.5506C36.4687 29.5873 36.8606 30.624 37.2527 31.6607C37.2942 31.8019 37.3081 31.9459 37.2947 32.0927C36.3986 32.0927 35.5027 32.0927 34.6067 32.0927C34.5931 31.9176 34.6071 31.7448 34.6487 31.5743C35.0799 30.517 35.4859 29.4515 35.8667 28.3778Z" fill="#336BB2"/>
<path fill-rule="evenodd" clip-rule="evenodd" d="M97.3547 28.7234C97.4387 29.8312 97.4664 30.9543 97.4387 32.0927C96.5407 32.1214 95.6453 32.0926 94.7507 32.0063C95.6209 30.9103 96.4886 29.8161 97.3547 28.7234Z" fill="#336BB2"/>
<path fill-rule="evenodd" clip-rule="evenodd" d="M107.519 31.4016C109.257 31.4079 109.83 32.2429 109.241 33.9069C108.427 34.6611 107.572 34.7043 106.679 34.0365C106.089 33.2119 106.144 32.4344 106.847 31.7039C107.07 31.5762 107.294 31.4754 107.519 31.4016Z" fill="#336BB2"/>
<path fill-rule="evenodd" clip-rule="evenodd" d="M89.1227 42.9782C97.999 42.9495 106.875 42.9782 115.751 43.0646C106.966 44.524 98.1745 45.935 89.3747 47.2979C89.3024 45.8566 89.2184 44.4167 89.1227 42.9782Z" fill="#336BB2"/>
<path fill-rule="evenodd" clip-rule="evenodd" d="M109.367 44.5333C109.591 44.5333 109.814 44.5333 110.039 44.5333C110.066 46.5501 110.123 48.5659 110.207 50.5808C103.248 49.7294 96.3038 48.8223 89.3747 47.8594C96.0544 46.7768 102.719 45.668 109.367 44.5333ZM109.535 44.9653C109.636 46.6504 109.72 48.3495 109.787 50.0625C103.933 49.3495 98.0813 48.6151 92.2307 47.8594C98.0116 46.9021 103.779 45.9374 109.535 44.9653Z" fill="#336BB2"/>
<path fill-rule="evenodd" clip-rule="evenodd" d="M100.379 49.7169C103.573 50.0772 106.765 50.466 109.955 50.8832C105.964 51.5673 101.96 52.2152 97.9427 52.827C97.8226 52.8069 97.7806 52.7493 97.8167 52.6543C98.7188 51.712 99.5731 50.733 100.379 49.7169Z" fill="#336BB2"/>
</svg>
